<?xml version="1.0" encoding="UTF-8"?>
<svg width="394px" height="50px" viewBox="0 0 394 50" version="1.1" xmlns="http://www.w3.org/2000/svg" xmlns:xlink="http://www.w3.org/1999/xlink">
    <!-- Generator: Sketch 42 (36781) - http://www.bohemiancoding.com/sketch -->
    <title>Logo@4x</title>
    <desc>Created with Sketch.</desc>
    <defs></defs>
    <g id="Page-1" stroke="none" stroke-width="1" fill="none" fill-rule="evenodd">
        <g id="Logo" fill="#FFFFFF">
            <path d="M24.219,22.573 C22.9309936,21.974997 21.585507,21.4460023 20.1825,20.986 C18.779493,20.5259977 17.181009,20.296 15.387,20.296 C13.6389913,20.296 12.2475052,20.6524964 11.2125,21.3655 C10.1774948,22.0785036 9.66,23.032994 9.66,24.229 C9.70600023,25.2410051 10.3154941,26.1264962 11.4885,26.8855 C12.6615059,27.6445038 14.2599899,28.3689965 16.284,29.059 C19.0440138,30.0710051 21.619988,31.4394914 24.012,33.1645 C26.404012,34.8895086 27.6,37.1319862 27.6,39.892 C27.6,43.0200156 26.4385116,45.4694911 24.1155,47.2405 C21.7924884,49.0115089 18.4230221,49.897 14.007,49.897 C12.5809929,49.897 10.7410113,49.6440025 8.487,49.138 C6.23298873,48.6319975 4.39300713,47.8730051 2.967,46.861 L5.037,41.962 C6.46300713,42.6520034 7.93499241,43.2039979 9.453,43.618 C10.9710076,44.0320021 12.4889924,44.239 14.007,44.239 C16.215011,44.239 17.9284939,43.8940034 19.1475,43.204 C20.3665061,42.5139966 20.976,41.5250064 20.976,40.237 C20.976,38.9489936 20.3205066,37.8335047 19.0095,36.8905 C17.6984934,35.9474953 15.9620108,35.1310034 13.8,34.441 C11.1779869,33.5669956 8.69401173,32.3480078 6.348,30.784 C4.00198827,29.2199922 2.829,27.0810136 2.829,24.367 C2.829,21.3309848 3.96748862,18.9505086 6.2445,17.2255 C8.52151139,15.5004914 11.6149805,14.638 15.525,14.638 C16.9510071,14.638 18.7449892,14.9139972 20.907,15.466 C23.0690108,16.0180028 24.8629929,16.7999949 26.289,17.812 L24.219,22.573 Z M62.169,19.882 C63.5950071,18.3179922 65.4234888,17.0185052 67.6545,15.9835 C69.8855112,14.9484948 71.9899901,14.431 73.968,14.431 C78.0620205,14.431 81.0404907,15.6154882 82.9035,17.9845 C84.7665093,20.3535118 85.698,23.3319821 85.698,26.92 L85.698,49 L79.005,49 L79.005,27.541 C79.005,25.2869887 78.4645054,23.4930067 77.3835,22.159 C76.3024946,20.8249933 74.6810108,20.1350002 72.519,20.089 C71.0929929,20.089 69.575008,20.4799961 67.965,21.262 C66.3549919,22.0440039 64.8830067,23.0789936 63.549,24.367 C63.5950002,24.8270023 63.6294999,25.252498 63.6525,25.6435 C63.6755001,26.034502 63.687,26.4599977 63.687,26.92 L63.687,49 L56.994,49 L56.994,27.541 C56.994,25.2869887 56.4650053,23.4930067 55.407,22.159 C54.3489947,20.8249933 52.7620106,20.1350002 50.646,20.089 C49.2659931,20.089 47.8170076,20.4339966 46.299,21.124 C44.7809924,21.8140035 43.3780064,22.8029936 42.09,24.091 L42.09,49 L35.466,49 L35.466,15.535 L39.192,15.535 L40.986,19.123 C42.4580074,17.7429931 44.2174898,16.6160044 46.2645,15.742 C48.3115102,14.8679956 50.231991,14.431 52.026,14.431 C54.5560127,14.431 56.6604916,14.9254951 58.3395,15.9145 C60.0185084,16.9035049 61.2949956,18.2259917 62.169,19.882 Z M109.02,49.897 C103.959975,49.8509998 100.119013,48.1835164 97.497,44.8945 C94.8749869,41.6054836 93.564,37.362026 93.564,32.164 C93.6100002,27.0119742 95.035986,22.8145162 97.842,19.5715 C100.648014,16.3284838 104.580975,14.6840002 109.641,14.638 C114.885026,14.638 118.852487,16.3054833 121.5435,19.6405 C124.234513,22.9755167 125.58,27.2649738 125.58,32.509 C125.58,37.707026 124.108015,41.8929841 121.164,45.067 C118.219985,48.2410159 114.172026,49.8509998 109.02,49.897 Z M118.887,32.509 C118.887,28.9209821 118.174007,25.9885114 116.748,23.7115 C115.321993,21.4344886 113.022016,20.296 109.848,20.296 C106.673984,20.296 104.305008,21.3654893 102.741,23.5045 C101.176992,25.6435107 100.372,28.5069821 100.326,32.095 C100.326,35.8210186 101.004493,38.7764891 102.3615,40.9615 C103.718507,43.1465109 105.983984,44.239 109.158,44.239 C112.286016,44.239 114.677992,43.2040104 116.334,41.134 C117.990008,39.0639897 118.841,36.1890184 118.887,32.509 Z M147.591,49.897 C142.530975,49.8509998 138.690013,48.1835164 136.068,44.8945 C133.445987,41.6054836 132.135,37.362026 132.135,32.164 C132.181,27.0119742 133.606986,22.8145162 136.413,19.5715 C139.219014,16.3284838 143.151975,14.6840002 148.212,14.638 C153.456026,14.638 157.423487,16.3054833 160.1145,19.6405 C162.805513,22.9755167 164.151,27.2649738 164.151,32.509 C164.151,37.707026 162.679015,41.8929841 159.735,45.067 C156.790985,48.2410159 152.743026,49.8509998 147.591,49.897 Z M157.458,32.509 C157.458,28.9209821 156.745007,25.9885114 155.319,23.7115 C153.892993,21.4344886 151.593016,20.296 148.419,20.296 C145.244984,20.296 142.876008,21.3654893 141.312,23.5045 C139.747992,25.6435107 138.943,28.5069821 138.897,32.095 C138.897,35.8210186 139.575493,38.7764891 140.9325,40.9615 C142.289507,43.1465109 144.554984,44.239 147.729,44.239 C150.857016,44.239 153.248992,43.2040104 154.905,41.134 C156.561008,39.0639897 157.412,36.1890184 157.458,32.509 Z M189.474,48.724 C188.875997,49.0460016 188.036505,49.3679984 186.9555,49.69 C185.874495,50.0120016 184.828005,50.173 183.816,50.173 C180.549984,50.173 177.95101,49.276009 176.019,47.482 C174.08699,45.687991 173.121,43.089017 173.121,39.685 L173.121,20.986 L168.429,20.986 L168.36,15.949 L173.121,15.949 L173.121,7.6 L179.745,6.082 L179.745,15.949 L185.817,15.949 L187.887,20.986 L179.745,20.986 L179.745,38.65 C179.745,40.3520085 180.124496,41.7434946 180.8835,42.8245 C181.642504,43.9055054 182.849992,44.446 184.506,44.446 C185.058003,44.446 185.621497,44.3655008 186.1965,44.2045 C186.771503,44.0434992 187.288998,43.8710009 187.749,43.687 L189.474,48.724 Z M202.791,19.192 C204.217007,17.8119931 205.95349,16.6735045 208.0005,15.7765 C210.04751,14.8794955 211.967991,14.431 213.762,14.431 C217.85602,14.431 220.834491,15.6154882 222.6975,17.9845 C224.560509,20.3535118 225.492,23.3319821 225.492,26.92 L225.492,49 L218.868,49 L218.868,27.541 C218.868,25.2869887 218.327505,23.4930067 217.2465,22.159 C216.165495,20.8249933 214.521011,20.1350002 212.313,20.089 C210.932993,20.089 209.334509,20.5259956 207.5175,21.4 C205.700491,22.2740044 204.125007,23.4239929 202.791,24.85 L202.791,49 L196.167,49 L196.167,1.045 L202.791,0.286 L202.791,19.192 Z M265.788,20.296 C262.659984,20.296 260.325508,21.4344886 258.7845,23.7115 C257.243492,25.9885114 256.45,28.8059832 256.404,32.164 C256.404,35.6600175 257.139993,38.5464886 258.612,40.8235 C260.084007,43.1005114 262.406984,44.239 265.581,44.239 C267.60501,44.239 269.203494,44.0320021 270.3765,43.618 C271.549506,43.2039979 272.848993,42.6520034 274.275,41.962 L276.276,46.723 C274.803993,47.7350051 273.010011,48.5169972 270.894,49.069 C268.777989,49.6210028 267.007007,49.897 265.581,49.897 C260.428974,49.897 256.484514,48.2640163 253.7475,44.998 C251.010486,41.7319837 249.642,37.4770262 249.642,32.233 C249.688,27.034974 251.102486,22.8030163 253.8855,19.537 C256.668514,16.2709837 260.658974,14.638 265.857,14.638 C267.237007,14.638 268.97349,14.9254971 271.0665,15.5005 C273.15951,16.0755029 274.941993,16.8689949 276.414,17.881 L274.482,22.573 C273.055993,21.974997 271.745006,21.4460023 270.549,20.986 C269.352994,20.5259977 267.76601,20.296 265.788,20.296 Z M297.804,49.897 C292.743975,49.8509998 288.903013,48.1835164 286.281,44.8945 C283.658987,41.6054836 282.348,37.362026 282.348,32.164 C282.394,27.0119742 283.819986,22.8145162 286.626,19.5715 C289.432014,16.3284838 293.364975,14.6840002 298.425,14.638 C303.669026,14.638 307.636487,16.3054833 310.3275,19.6405 C313.018513,22.9755167 314.364,27.2649738 314.364,32.509 C314.364,37.707026 312.892015,41.8929841 309.948,45.067 C307.003985,48.2410159 302.956026,49.8509998 297.804,49.897 Z M307.671,32.509 C307.671,28.9209821 306.958007,25.9885114 305.532,23.7115 C304.105993,21.4344886 301.806016,20.296 298.632,20.296 C295.457984,20.296 293.089008,21.3654893 291.525,23.5045 C289.960992,25.6435107 289.156,28.5069821 289.11,32.095 C289.11,35.8210186 289.788493,38.7764891 291.1455,40.9615 C292.502507,43.1465109 294.767984,44.239 297.942,44.239 C301.070016,44.239 303.461992,43.2040104 305.118,41.134 C306.774008,39.0639897 307.625,36.1890184 307.671,32.509 Z M337.065,20.089 C333.614983,20.089 331.188507,21.3079878 329.7855,23.746 C328.382493,26.1840122 327.681,28.9899841 327.681,32.164 C327.681,35.5220168 328.347993,38.3739883 329.682,40.72 C331.016007,43.0660117 333.476982,44.239 337.065,44.239 C338.307006,44.239 339.606493,43.9515029 340.9635,43.3765 C342.320507,42.8014971 343.619994,42.0080051 344.862,40.996 L344.862,23.332 C343.619994,22.3199949 342.320507,21.5265029 340.9635,20.9515 C339.606493,20.3764971 338.307006,20.089 337.065,20.089 Z M351.555,0.355 L351.555,49 L347.76,49 L345.966,45.895 C344.539993,47.1370062 342.87251,48.1144964 340.9635,48.8275 C339.05449,49.5405036 337.295008,49.897 335.685,49.897 C330.808976,49.897 327.129012,48.2180168 324.645,44.86 C322.160988,41.5019832 320.919,37.2930253 320.919,32.233 C320.919,27.1269745 322.195487,22.8835169 324.7485,19.5025 C327.301513,16.1214831 331.015976,14.431 335.892,14.431 C337.272007,14.431 338.766992,14.7184971 340.377,15.2935 C341.987008,15.8685029 343.481993,16.6159954 344.862,17.536 L344.862,1.045 L351.555,0.355 Z M390.678,33.751 L366.942,33.751 C367.172001,36.8330154 368.137991,39.3629901 369.84,41.341 C371.542009,43.3190099 374.094983,44.308 377.499,44.308 C379.47701,44.308 381.144493,44.0895022 382.5015,43.6525 C383.858507,43.2154978 385.226993,42.6750032 386.607,42.031 L388.677,46.861 C387.204993,47.8730051 385.330511,48.6204976 383.0535,49.1035 C380.776489,49.5865024 378.925007,49.828 377.499,49.828 C371.886972,49.828 367.574515,48.2065162 364.5615,44.9635 C361.548485,41.7204838 360.042,37.4770262 360.042,32.233 C360.042,27.034974 361.456486,22.8030163 364.2855,19.537 C367.114514,16.2709837 371.035975,14.638 376.05,14.638 C381.478027,14.638 385.272989,16.5469809 387.435,20.365 C389.597011,24.1830191 390.678,28.6449745 390.678,33.751 Z M384.261,29.266 C383.846998,26.5059862 382.973007,24.3210081 381.639,22.711 C380.304993,21.100992 378.373013,20.296 375.843,20.296 C373.266987,20.296 371.243007,21.1124918 369.771,22.7455 C368.298993,24.3785082 367.402002,26.5519864 367.08,29.266 L384.261,29.266 Z" id="smooth-code-copy"></path>
        </g>
    </g>
</svg>