<svg version="1" xmlns="http://www.w3.org/2000/svg" width="1600" height="1600" viewBox="0 0 1200.000000 1200.000000"><path d="M0 600v600h449.9c400.6 0 450-.2 450.5-1.5s.2-1.4-1.7-.5c-2 1-2.1 1-.4-.3 1.6-1.3 1.6-1.6.2-3-1.9-2-2-3.3 0-1.7 1 .9 1.5.9 1.5.1 0-.6 1-1.1 2.3-1h2.2l-2.2.9c-2.5 1-3 2.5-1.1 3.6.6.4 1.6 0 2.2-.8 1.4-1.8 4.7-3.1 4.3-1.6-.1.6.9 1.2 2.2 1.3 2.3.2 2.3.1.5-1.2-1.7-1.3-1.4-1.4 2.9-1 2.6.2 4.5.2 4.2-.1-.5-.6-2.8-1.2-5-1.4-.6-.1-1.7-.7-2.4-1.5-1-1.1-.7-1.3 1.9-.8 2 .4 2.9.2 2.5-.5-.4-.6.5-1 2.2-1 2.2 0 2.5-.2 1.3-1-1.3-.9-1.3-1 0-1.1.8 0 .4-.5-1-.9-1.9-.6-1.1-.8 3.5-1 3.3-.1 6.9-.3 8-.5 1.1-.2 2.3.1 2.7.8.6.9.8.8.8-.3 0-1.3.1-1.3 1 0s1.1 1.3 2 0c.9-1.3 1-1.3 1 0 0 1.1.2 1.2.8.3 1.3-2 7.2-.4 7.2 2 0 .7-.4.6-1-.3-.9-1.3-1.1-1.3-2 0-.9 1.3-1 1.3-1 0 0-1.2-.2-1.3-.9-.1-.8 1.3-3.7 1.2-11.6-.4-1.9-.3-2.5-.2-1.6.4 1.1.7 1.1.9 0 1.3-.8.3 3.1.4 8.6.3 10.9-.1 13.5.2 11.3 1.6-.9.6-.7.8.8.7 1.1-.1 2.1-.8 2.1-1.5 0-.6-.3-1-.7-.8-.3.2-1.2-.1-2-.6-1.3-.8-1.3-1 0-1.8.8-.5 1.9-.7 2.5-.4.5.4.7.2.2-.2-.4-.5-2.1-.9-3.8-1-1.7-.1-3.5-.8-4-1.6-.7-1.2-.9-1.2-.9.1s-.1 1.3-1 0-1.1-1.3-2 0c-.9 1.3-1 1.3-1 0 0-.9-.3-1.1-.8-.5-.4.5-5 1.1-10.2 1.3-10.9.4-11.7-.3-1.5-1.3 3.8-.4 7.3-1.2 7.7-1.8.5-.8.8-.7.8.3 0 1.1.2 1.2.8.2.5-.7 1.8-1.5 3-1.7 2.3-.5 4.5-1.1 8.5-2.1 6.1-1.6 12.4-.8 10.4 1.3-.5.4-1.3.1-1.8-.7-.9-1.2-1-1.2-.5.3.4 1.2.2 1.6-.5 1.1-.8-.4-.7 0 0 1.5 1.4 2.5 2.3 2.8 1.4.5-.5-1.4 0-1.5 4.3-1 6 .9 11.3 1 13.9.3 1.1-.3 2.6-.6 3.4-.6 3-.2.1-1.3-4.8-1.8-3.4-.3-5.1-.2-5.1.6 0 .7 1.2.9 3.2.6 1.8-.4 3-.3 2.6 0-1.5 1.6-5.7 1.4-6.7-.2-.6-1-1.1-1.2-1.1-.6 0 1.9-2 1.6-2-.3 0-1.2 1.1-1.5 5.3-1.4 6.9.2 7 .2 5.5-1.4-.9-1-1.7-1.1-2.6-.4-.9.8-1.1.7-.7-.4.3-.8 0-1.5-.7-1.6-2.3-.1-6-1.1-6.7-1.7-.8-.8 4.6.2 6.1 1.1.8.5.9.2.5-1-.4-1-.3-1.5.3-1.1.6.3 1 .2 1-.3s1.2-.7 2.6-.4c1.8.3 2.5.1 2-.6-.3-.6-.2-1.3.3-1.6.5-.4 1.1.4 1.3 1.6.2 1.7 1 2.3 3 2.4 1.5.1 3.3-.3 4-.8.8-.5-.2-.6-2.4-.2-3 .4-3.8.2-3.8-1 0-2.2 1.9-2.9 3.7-1.4 1.2.9 1.5.9.9 0-.5-.8.1-1.2 2.1-1.3 5.4 0 11.8-1.1 12.1-2 .2-.5.8-.7 1.3-.3.5.3.9 0 .9-.7 0-.8.5-.7 1.7.2 1.1 1 1.4 1 .9.1-.5-.8 0-1.2 1.3-1.2 1.2 0 2.1-.5 2.1-1.1 0-.5.6-.7 1.3-.3.8.5.8.2-.2-.9-.7-.9-1.9-1.7-2.5-1.7-.6 0-.4.5.4 1 1.2.7 1 1.1-1 1.8-3.2 1.2-4.3.6-3.4-2.1.6-1.9.5-2-.9-.8-.9.7-1.4 1.8-1 2.4.4.6.1.7-.6.3-.9-.6-.9-1.2.3-2.5.9-1 1.6-2.3 1.6-2.9 0-.7.4-1.2.9-1.2s.8 1.3.7 3c-.1 1.6.1 3 .6 3 .8 0 1.2-2.3.8-5-.1-1 .3-.9 1.4.5.8 1.1 1.6 1.5 1.6.9 0-1.3-2-3.2-3.3-3.2-.5 0-1.1-.3-1.4-.6-.4-.3-.1-.6.6-.6s2-.7 2.8-1.6c1.5-1.4 1.5-1.5 0-1.2-2.5.5-2.5-2.8.1-3.5.9-.3.2-.4-1.6-.4-4.4.2-5.1 1.5-2.1 3.9 1.3 1.1 1.8 1.7 1 1.3-.7-.4-1.7-.2-2.2.6-.6 1-.9 1.1-1 .1-.1-.6-.3-1.7-.4-2.2-.1-.6-.3-1.5-.4-2.1 0-.6-.8-.8-1.7-.5-.9.3-1.2.2-.9-.5.4-.6 1.3-.8 2-.5.7.2 1.6-.2 1.9-1 1-2.5.7-2.7-1.1-1.3-1.6 1.3-1.7 1.2-.5-.3 1.5-1.8 4.6-1.3 3.5.6-.4.7-.2.7.7-.1 1-.9 1.9-.9 3.4-.1s1.3.4-.7-1.6c-2.9-2.7-4.3-3.4-3.1-1.5.4.7 0 .9-1.4.5-1.1-.4-2.3-.2-2.7.4-.3.6-1.1.8-1.6.4-.5-.3-.7-1-.3-1.5.3-.5 1-.7 1.5-.4.5.4.9-.2 1-1.2 0-1.1.2-1.3.6-.5.4 1 1 .9 2.5-.5 1.1-1 2.2-1.7 2.4-1.6.2.2 1.9.3 3.7.3 2.5 0 2.9-.3 1.7-1-1.1-.8-.7-.9 1.5-.5 1.6.2 3.2 0 3.6-.6.4-.7.8-.6 1.2.3.3.8-.1 1.5-.9 1.6-.8.1-2 .3-2.8.4-.8.1-1.3.6-1.2 1.2.2.6.1.8-.1.3-.3-.4-1.9-.7-3.6-.7-2.2 0-2.8.3-1.8.9 1.1.7 1.1.9 0 1.4-.8.2.4.3 2.6.2 4.8-.3 7.3.4 5.5 1.5-.9.5-.9.9-.1 1.4.6.4 1.1.2 1.1-.4 0-.6.4-.9.8-.6.4.2 1.4.1 2.2-.5 1.1-.6 1.1-.9.3-1-.7-.1-1.7-.3-2.3-.4-.5-.1-1.4-.3-2-.4-.5 0-1-.6-1-1.1 0-.6 1.1-.8 2.8-.4 3.6.9 13.1.9 16.2 0 3.1-.9 5.2-1.4 6.5-1.6.6-.1-.3-.8-2-1.5-2.4-1.2-2.6-1.4-1-1.6 1.1-.1 2.3-.1 2.8 0 .4 0 .7-.4.7-1s-.7-.9-1.5-.5c-.8.3-1.5.1-1.5-.4 0-.6.7-1 1.5-1s1.5-.9 1.5-2-.5-2-1.1-2c-.6 0-.8.7-.5 1.6.3.8.2 1.3-.3 1-1.1-.7-3.3 1.8-2.4 2.7.3.4.1.7-.5.7-.7 0-1.2.7-1.2 1.5s.6 1.5 1.3 1.5c.8 0 .7.3-.3.9-1.9 1.3-3.1.4-2.3-1.6.4-1-.1-2.2-1.3-3-1.4-1-1.5-1.4-.4-1.3 3 .4 4 0 5.6-2.6 1.5-2.2 1.5-2.7.3-3.5-.9-.6 0-.9 3.1-.9 3.3 0 4.1.3 3 1-.8.5-1 1-.5 1.1.6 0 2.1.2 3.5.5 1.9.3 2.1.2 1-.6-1.1-.7-.7-1 1.8-1 1.9 0 3.2-.5 3.2-1.3s.4-.7 1 .3c.7 1.1 1 1.2 1 .2 0-1.1 1.1-1.3 4.8-.8 6.3.9 13.3 1.4 10.2.9-1.4-.3-2.8-1-3.2-1.6-.6-.9-.8-.8-.8.1 0 1-.4.9-1.6-.3-.9-.9-1.3-1.9-1-2.3.4-.3 1.1 0 1.6.8.7 1.1 1 1.2 1 .2s.4-.9 1.6.3c1.2 1.1 2 1.3 2.9.5.9-.8 1.5-.8 2 0 .3.5 1 1 1.5 1 1.3 0 2-2.9.8-3.6-.7-.4-.8-.3-.4.4.5.8.2 1-.8.6-2.3-.9-2-1.2 1.7-2.4 2.8-.8 2.8-.9.5-.6-2.7.3-3.3-.3-2.9-3.3.2-.7-.2-1-.8-.7-.5.4-1.3.1-1.7-.5-.4-.7-.3-.9.4-.5.6.3 1.3.2 1.7-.4.3-.5.1-1-.6-1-.6 0-.1-.8 1.2-1.8 1.7-1.5 1.9-2.1.9-2.7-.9-.5-1.1-.4-.6.3.4.7.4 1.2-.1 1.3-.4 0-1.6.2-2.6.4-.9.2-1.5-.1-1.1-.6.3-.5 1-.7 1.5-.4.5.4.9.1.9-.4 0-.6-.4-1.1-1-1.1-.5 0-1-.4-1-.9s1-.7 2.3-.5c1.2.2.6-.2-1.3-1s-2.7-1.5-1.8-1.5c1.1-.1 1.5-.6 1.2-1.6-.4-.9 0-1.5 1-1.5.9 0 1.6-.5 1.6-1.1 0-.5-.4-.8-.9-.5-.5.3-1.1-.1-1.4-.9-.4-.9-.1-1.2.8-.9.7.3 1.5-.2 1.8-1.3.2-1 .4-.3.4 1.5 0 1.9-.5 3.6-1.2 3.8-.6.3-1.2 1.1-1.2 1.9 0 .8.5 1.1 1.1.7.6-.3 1.7-.7 2.4-.8 1.8-.3 2.9-1.4 1.4-1.4-.7 0-1.2-.7-1.2-1.5 0-1 1-1.5 3-1.5 2.2 0 3-.5 3.1-1.8 0-1.2.2-1.3.6-.3.3.8-.3 2.1-1.3 2.8-1.8 1.3-1.7 1.4 1 .9 2.9-.5 4.8-1.6 2.8-1.6-.7 0-1.2-.7-1.2-1.5 0-2 16.8-1.5 18.1.6.7 1.2.9 1.2.9-.1s.1-1.3 1 0c.5.8 1.2 1.1 1.6.8.3-.4-.1-1.4-1-2.3-1.2-1.2-1.6-1.3-1.6-.3s-.2 1-.8 0c-.5-.7-1.9-1.4-3.2-1.7-1.2-.2-2.5-.7-2.9-1-.8-.8 4.6.2 6.1 1.1.8.5.9.2.5-1-.4-1-.3-1.5.3-1.1.6.3 1 .2 1-.3s1.1-.7 2.5-.4c1.8.3 2.5 0 2.5-1.2 0-.9-.5-1.6-1.1-1.6-.5 0-.7.4-.4 1 .4.6-.1.7-1.1.3-1.1-.4-1.3-.8-.6-1.1.8-.2.9-.9.2-2.2-.7-1.3-.7-2.1 0-2.5.6-.4 1-.3.9.2-.4 2 .2 3.3 1.5 3.3 1.9 0 2.6 2 1.5 4.2-.6 1.1-1.7 1.5-3.4 1.2-2.7-.5-3.5 1-1 2 .8.3 1.5 0 1.5-.7 0-.8.4-.6 1 .3.9 1.3 1 1.3 1.1 0 0-1 .3-.8.9.5.8 1.8.9 1.7.9-.7.2-7.1 0-8.4-1.6-9.5-1.3-1-.7-1.2 3.4-.9 4.7.4 5 .3 3.4-1.3-.9-.9-1.7-1.3-1.9-.9-.6 1.3-1.9.9-2.6-.8-.4-.9-.2-1.3.5-.8.6.4 1.5 0 2-.7.7-1.2.9-1.1.9.1 0 1.3.1 1.3 1 0s1.1-1.3 2 0c.9 1.3 1 1.3 1 0 0-1.1.2-1.2.8-.3.5.7 2 1 3.7.8 2-.4 2.6-.2 1.6.4-.8.5-3.1.7-5.2.6-2.2-.2-3.9.1-3.9.6s1.4.9 3 .9c1.7 0 3 .5 3 1.2 0 .9.4.8 1-.2s1-1.1 1-.3c0 2 2 1.5 2.1-.5 0-1.4.2-1.4.9.3.7 1.6.9 1.6.9.4.1-2.1 1.6-2.7 6.3-2.4 2.8.2 3.8-.1 4-1.4.3-1.2.5-1 1 .7.3 1.2.2 2-.3 1.6-.5-.3-.6.3-.2 1.2.4 1.1.8 1.3 1.1.6.2-.7 1.6-1.2 3.2-1.2 1.9 0 3-.6 3.4-1.8.4-1.4.5-1.4.4.3-.1 4.4.1 4.7 1.7 3.2.9-1 2.9-1.4 5.5-1.2 2.2.2 4 0 4-.4s-.6-.8-1.2-.8c-.7 0-2.1-.4-3-.8-1.2-.5-1.8-.3-1.8.6 0 1.1-.3 1.1-1-.1-.6-1-1-1.1-1-.3 0 .7-.4 1.3-1 1.3-.5 0-1-.7-1-1.6 0-1.3.8-1.5 3.5-1.2 2.4.3 3.5 0 3.5-.9 0-.7-.7-1-1.7-.7-1.5.5-1.5.4-.3-.4.8-.6 1.7-.9 2.1-.6.4.2 1-.3 1.3-1.2.9-2.3.7-3.4-.5-3.4-.5 0-.7.4-.4 1 .4.6-.1.7-1.1.3-1.1-.4-1.3-.8-.6-1.1.7-.2 1-.7.7-1.1-.2-.5.8-.7 2.3-.5 1.5.2 1.9.1.9-.2-1.6-.5-1.6-.6.1-2.2 1-.9 1.3-1.4.7-1.1-2.5 1.5-5.3 1.7-4.8.3.2-.7 1-1.1 1.7-.8.7.3 1.2-.5 1.2-2 0-1.4-.4-2.2-1-1.9-.5.4-.7-.1-.3-1 .3-.9.1-1.9-.5-2.3-.6-.4-.8-.3-.5.3.4.6 0 1.3-.8 1.7-.8.3-1.7 0-2.1-.6-.4-.7-.3-.8.4-.4 1.6 1 1.5-.7 0-2.3-1.1-1.1-1-1.2.2-.5 2.2 1.3 5.2 1.6 4.5.4-.3-.5.3-1 1.4-1 1.2 0 2.1-.5 2.1-1.1 0-.5-.4-.7-1-.4-.6.4-.7-.1-.3-1.1.5-1.3.3-1.5-.8-.8-2 1.2-3.9 1.4-3.9.3 0-.5 1-1 2.3-1 1.2-.1 4.2-.3 6.7-.4 6.9-.4 7.8-.7 4-1.6-3.5-.8 7.8-.2 12.2.6 4.2.8 2.9 1.4-1.7.8-4-.4-5.1-.2-6.2 1.3-.7 1-1.3 1.3-1.3.8s-2.2-1-5-1c-2.7 0-5 .4-5 .8s1.7.8 3.8.8c2 0 6 .2 8.7.4 2.8.2 3.8.1 2.3-.1-5.7-.9-2.6-2 4.2-1.5 5.8.4 7 .2 7-1.1 0-.8-.6-1.8-1.2-2.1-.7-.3-.4-.4.7-.3 1.5.1 2-.4 1.9-2-.1-1.5.3-2 1.3-1.6.8.3 1.1.9.6 1.2-1.1.7-1.1 2.7 0 3.7 1 1.1.9 2.4-.3 2.4-.5 0-1-.8-1.1-1.8 0-1.3-.2-1.4-.6-.2-.3.8-1.3 2.1-2.2 2.8-1.4 1.1-1.1 1.2 1.9.7 4-.7 3.6-.4 4.4-3.5.6-2 .5-2.2-.4-1-.8 1.1-.9.6-.4-2.4.5-2.7.3-3.7-.4-3.2-.6.3-1.3.2-1.6-.3-.4-.5.8-.7 2.6-.4 3.1.4 3.2.4 1.3-1-1.1-.9-2.4-1.3-2.9-1-.5.4-.6.1-.2-.6.4-.6 1.2-.8 1.8-.5.7.4.8.2.4-.5-.4-.6-1.1-.9-1.6-.6-.5.3-1.1.1-1.5-.5-.3-.5.3-1 1.4-1 1.2 0 2.1.4 2.1 1 0 .5.4 1 1 1 .5 0 .9-.6.7-1.3-.3-1.5 8.9-1.9 11.5-.5 1.7.8 1.8-24.6 1.8-518.2V0H0v600zm363.6-278.9c31 3 71.3 12.4 100.9 23.4 17.9 6.6 49.5 23.7 49.5 26.7 0 .6-7.3 17.8-16.2 38.3l-16.2 37.3-5.5-2.5c-12.7-5.7-37.7-15.5-51.4-20.2-24.3-8.3-42.1-11.6-68.7-13-35.7-1.8-61.2 3-79.7 15.1-18 11.7-26.6 26.4-26.7 45.3 0 29.4 27.7 50.6 100.4 77 49.7 18 100.5 45.3 135 72.4 42.9 33.8 59.2 83.1 46.5 140.2-10.4 47.1-43.4 83-94.6 103.3-42.5 16.8-109.2 23.1-161.9 15.1-43-6.4-78-16-104.5-28.4-12.7-6-28.8-16-28.2-17.5.3-.6 7.6-17.8 16.2-38.1 8.6-20.4 15.9-37.5 16.2-38.2.3-.8 2.9-.1 8.1 2.4 20.5 9.4 53.1 20.7 73.1 25.4 19.9 4.6 32.2 6.1 55.8 6.6 32.9.8 52.6-1.6 73.2-8.9 15.4-5.4 26.6-12.9 34.6-23.2 5.4-6.9 8.1-14 9.4-24.1 5-40.8-28.8-70.1-115.7-100-41.9-14.4-78.2-32.1-113.2-55.3-41.4-27.4-60-60.2-60-105.7.1-25.5 5-46.8 15.6-67.5 28.1-54.5 94-86.1 181.5-86.9 8.5 0 20.5.4 26.5 1zm550.4.4c30.1 3.5 68.1 13 96 24 21 8.3 50.4 24.6 49.5 27.5-2.6 7.8-30.4 73.4-31.1 73.3-.5-.1-15.5-6.1-33.3-13.3-17.8-7.2-36.5-14.2-41.5-15.5-26.3-7.1-71.6-8.9-96.3-4-26.2 5.3-44.8 15.1-62.9 33-25.8 25.4-43.8 65.9-51.1 115-2.5 17-2.5 64.6 0 82.5 8 56.9 30 101.4 61.7 125.1 7.6 5.6 25.7 14.3 36.2 17.3 16.6 4.8 28.6 5.9 56.8 5.3 43.8-.9 60.9-5.1 109.8-27.3 17.8-8 18.3-8.2 19.1-6.1.5 1.2 7.7 18.3 16 38.1 14 33.2 15 36 13.4 37.2-9.2 6.8-34.1 19.4-51 25.8-21.8 8.2-55.7 16.8-84.3 21.3-14.3 2.2-56.8 2.5-73 .5-69.5-8.6-121.2-37.1-158.7-87.4-34.6-46.3-52.8-101.9-56.3-171.8-4.4-88.6 19.3-167.6 67.2-223.5 34.8-40.7 80-65.1 137.9-74.5 24.9-4 54.9-5 75.9-2.5zm284.7 712.1c-.2.3-1.7.7-3.3 1-1.7.2-2.4.1-1.7-.4 1.3-.8 5.8-1.4 5-.6zm-52.6 15.1c1.2 1.6 1.2 1.7-.2.6-.9-.7-2-.9-2.4-.5-.5.4-.5.1-.1-.6.9-1.6 1.1-1.5 2.7.5zm1.9 13.3c.8.5 1.1 1 .5 1-.5 0-1.7-.5-2.5-1s-1-1-.5-1c.6 0 1.7.5 2.5 1zm-45.5 15.8c-.3.3-1.1 0-1.8-.7-.9-1-.8-1.1.6-.5 1 .3 1.5.9 1.2 1.2zm32.5-.3c0 .8-.4 1.5-1 1.5-.5 0-1-.7-1-1.5s.5-1.5 1-1.5c.6 0 1 .7 1 1.5zm1.7.7c-.3.8-.6.5-.6-.6-.1-1.1.2-1.7.5-1.3.3.3.4 1.2.1 1.9zm-54.1 13.1c.4.3-1.5.4-4.2 0-6.4-.7-7.3-1.7-1.1-1.1 2.6.3 5 .8 5.3 1.1zm-11.6 2.1c0 .8-.6 1.6-1.4 1.9-1 .4-1.2 0-.9-1.4.6-2.2 2.3-2.6 2.3-.5zm1.7.8c-.3.8-.6.5-.6-.6-.1-1.1.2-1.7.5-1.3.3.3.4 1.2.1 1.9zm-29.9 26.3c.3.3-.1.5-.9.5-1 0-1.1.2-.2.8.9.6.6 1.1-.8 2.1-1.2.7-1.8.8-1.4.2.3-.6-.4-1.5-1.7-2-2.1-.9-2.1-1-.3-1.1 1.7 0 1.8-.2.5-1-1.1-.8-.8-.9 1.4-.6 1.6.3 3.1.8 3.4 1.1zm-14.7 5.8l-2.4 2.2 1.9-2.7c1-1.4 2.1-2.4 2.3-2.2.3.3-.6 1.5-1.8 2.7zm-10.4 7.2c-.7.8-1.3.9-1.6.3-.2-.6-.7-.5-1.2.3-.4.7-1.1 1-1.6.6-.9-1 .9-2.2 3.6-2.4 1.7-.1 1.8.1.8 1.2zm9.3.5c0 .5-.4 1-1 1-.5 0-1-.5-1-1 0-.6.5-1 1-1 .6 0 1 .4 1 1zm-28 .4c0 .2-.7.7-1.6 1-.8.3-1.2.2-.9-.4.6-1 2.5-1.4 2.5-.6zm27.1 2.5c-1.3.8-12.1.5-13-.5-.2-.2 2.9-.4 7-.4 4.6 0 6.9.4 6 .9zm-27.6 10.1c.3.5.1 1-.4 1-.6 0-1.1-.5-1.1-1 0-.6.2-1 .4-1 .3 0 .8.4 1.1 1zm-22.8 14.6c-.3.3-1.2.4-1.9.1-.8-.3-.5-.6.6-.6 1.1-.1 1.7.2 1.3.5zm7.2.9c.3.3-.7.4-2.3.1-1.6-.3-3.1-.8-3.5-1.1-.3-.3.7-.4 2.3-.1 1.6.3 3.1.8 3.5 1.1zm6.2.4c.4-.7 1.1-1 1.6-.6 1.4 1.4-1.6 2.4-7.5 2.4-5.3 0-5.4 0-.9-.4 2.7-.2 4.7-.9 4.8-1.6 0-.8.3-.7.6.2.4 1.1.7 1.1 1.4 0zm-16 1c.4-.7 1.1-1.1 1.4-.7.4.3-.2 1.5-1.3 2.6-1.9 1.9-1.9 1.9-1.9-.7 0-1.4.2-2 .5-1.2.4 1.1.6 1.1 1.3 0zm-15.3 4.8c-1 .2-2.6.2-3.5 0-1-.3-.2-.5 1.7-.5s2.7.2 1.8.5zm-2.9 2.8c.3.3-.7.4-2.3.1-1.6-.3-3.1-.8-3.5-1.1-.3-.3.7-.4 2.3-.1 1.6.3 3.1.8 3.5 1.1zm11.6 2.7c.3.3-3.1.4-7.6.2-4.4-.1-8.3-.5-8.6-.8-.3-.3 3.1-.4 7.6-.2s8.4.5 8.6.8zm-31.7 2.3c.3.3.1.5-.4.6-3 .2-4.8.9-5.5 2.1-.7 1.1-.9 1.1-.9 0s-.3-1.1-1.4 0c-.8.8-3.5 1.4-6.2 1.5-3.9 0-4.1-.1-1.1-.4 4.9-.6 4.8-2.2-.2-1.8-2.1.1-4.4-.1-5.2-.6-1-.6-.4-.8 1.6-.4 1.7.2 3.2-.1 3.7-.8.6-.9.8-.8.8.3 0 1.3.1 1.3 1 0s1.1-1.3 2 0c.9 1.3 1 1.3 1 0 0-1.1.2-1.2.8-.3.4.7 1.6 1 2.7.8 1.1-.2 2.5-.4 3-.4.6-.1.3-.6-.5-1.1-1.1-.8-.8-.9 1.4-.6 1.6.3 3.1.8 3.4 1.1zm24.9 1.7c-.3.8-.6.5-.6-.6-.1-1.1.2-1.7.5-1.3.3.3.4 1.2.1 1.9zm-47.6 8.1c-1 .9-1.1.8-.5-.6.3-1 .9-1.5 1.2-1.2.3.3 0 1.1-.7 1.8zm-9.1 4.2c0 .2-.9.3-1.9.2-1.1 0-1.8-.5-1.5-.9.4-.6 3.4 0 3.4.7zm-.5 4.5c.3.5.1 1-.4 1-.6 0-1.1-.5-1.1-1 0-.6.2-1 .4-1 .3 0 .8.4 1.1 1zm-10 3.1c-.4.5-1.2.9-1.8.8-.9 0-.8-.2.1-.6.6-.2.9-1 .6-1.5-.4-.7-.2-.8.5-.4.6.4.9 1.2.6 1.7z"/><path d="M1039.5 1120.9c-.3.5-.2 1.2.3 1.5.5.3.9-.1.9-.9 0-1.7-.3-1.9-1.2-.6zM1187.6 1038.1c.2.4-.4 1.2-1.3 1.8-1.6.9-1.6 1-.2 1.1.9 0 1.9-.7 2.3-1.5.5-1.5 1.7-1.5 7.6 0 .8.2 2 .4 2.5.4.6.1.3.6-.5 1.1-.9.6-1 1-.3 1 2.1 0 2.2-1.6.2-3.3-1.3-1.1-1.9-1.3-1.9-.4s-.2.9-.9-.1c-.4-.7-2.3-1.2-4.4-1-2 .1-3.4.5-3.1.9z"/><path d="M1189 1040c0 .5.5 1 1 1 .6 0 1-.5 1-1 0-.6-.4-1-1-1-.5 0-1 .4-1 1zM1186 1051.2c-1 2.1-1 2.1.3.6.8-1 1.8-1.4 2.2-1 .5.4.5.1.1-.6-1-1.7-1.4-1.5-2.6 1zM1157.9 1054.9c1.1.7 1.1.9 0 1.4-.8.3-.3.4 1.1.2 1.4-.2 2.9-.4 3.4-.4 1.7-.2-.2-1.2-3-1.7-1.9-.3-2.4-.1-1.5.5zM1151.2 1070.4c.4.5.1 1.8-.7 3-1.9 2.7-1.9 4.7 0 4 .8-.4 1.5-1 1.5-1.6 0-.5-.5-.6-1.2-.2-.7.4-.8.3-.4-.4.4-.6 1.2-1 1.9-.8.7.1.9.1.5-.1-1.6-.9-.7-2.2 1-1.6 1.9.7 1.7.4-1.3-1.7-1.1-.8-1.7-1.1-1.3-.6zM1125.9 1079.9c1.1.7 1.1.9 0 1.4-.8.3.1.6 1.9.6 1.7.1 3.2-.4 3.2-.9 0-.6-.3-1-.7-1.1-.5 0-1.9-.2-3.3-.5-1.7-.3-2.1-.1-1.1.5zM1152.5 1080.1c-.4.6-.5 1.2-.2 1.5.2.3.7-.2 1-1.1.7-1.7.1-2-.8-.4zM1134.2 1082.6c-1.1 1.3-.9 1.4 1.4 1 3.1-.6 4-1.3 3-2.3-.4-.4-1.1-.1-1.5.6-.5.8-1 .9-1.2.3-.2-.6-1-.4-1.7.4zM1105 1084.5c0 .8.4 1.5.8 1.5.5 0 .9-.7.9-1.5s-.4-1.5-.9-1.5c-.4 0-.8.7-.8 1.5zM1118.6 1083.7c-.2.2-1.4.6-2.6.8-1.2.2-2.5.7-2.9 1-.5.6.7.4 6.8-.9 3.1-.7 3.9-1.5 1.2-1.3-1.2.1-2.3.3-2.5.4zM1081.4 1094.7c.3.3 2.7.8 5.3 1.1 6.2.6 5.3-.4-1.1-1.1-2.7-.4-4.6-.3-4.2 0zM1081.7 1098.2c-.7.5 0 .6 1.7.4 1.6-.3 3.1-.7 3.3-1 .8-.8-3.7-.2-5 .6zM1094.3 1097.7c.9.2 2.5.2 3.5 0 .9-.3.1-.5-1.8-.5-1.9 0-2.7.2-1.7.5zM1068.2 1108.9c-1.1.7-1.1.9 0 1.4.9.3 1.5-.1 1.5-.9s-.1-1.4-.1-1.4c-.1 0-.7.4-1.4.9zM1067.7 1112.1c.7.7 1.5 1 1.8.7.3-.3-.2-.9-1.2-1.2-1.4-.6-1.5-.5-.6.5zM1071.5 1112.9c-.6.5-1.9 1.1-3 1.4-1.9.4-1.9.5.1.6 1.2 0 2.7-.6 3.4-1.4 1.4-1.6 1-2-.5-.6zM1071.3 1119.5c0 .8.4 1.2.9.9.5-.3.6-1 .3-1.5-.9-1.3-1.2-1.1-1.2.6zM1050.2 1124.6c-.7.8-.9 1.4-.5 1.5.4 0 1.9.2 3.3.5 1.7.3 2.1.1 1.1-.5-.7-.5-1.6-1.3-2-1.9-.4-.6-1.1-.5-1.9.4zM1053 1124c0 .5.5 1 1 1 .6 0 1-.5 1-1 0-.6-.4-1-1-1-.5 0-1 .4-1 1zM1061.8 1125.7c.6.2 1.8.2 2.5 0 .6-.3.1-.5-1.3-.5-1.4 0-1.9.2-1.2.5zM1035.7 1128.9c-.2 1-.1 2.5.4 3.2.6 1 .9.4.9-1.9 0-3.6-.5-4.2-1.3-1.3zM1025.2 1140.5c.3.3 1.6.8 2.8 1 1.2.2 2 .1 1.6-.2-.4-.4-1.6-.8-2.8-1-1.2-.2-1.9-.1-1.6.2zM1037 1140.4c0 .2.7.7 1.6 1 .8.3 1.2.2.9-.4-.6-1-2.5-1.4-2.5-.6zM1006.3 1142.5c-1 1.1-.9 1.3.6 1.2 1.1-.1 1.7-.7 1.4-1.4-.6-1.6-.5-1.6-2 .2zM1017.1 1142.5c.4.3 1.9.8 3.5 1.1 1.6.3 2.6.2 2.3-.1-.4-.3-1.9-.8-3.5-1.1-1.6-.3-2.6-.2-2.3.1zM1010.1 1144.9c-.9.6-1 1.1-.2 1.5.6.4 1.1.2 1.1-.4 0-.6.5-.8 1.2-.4s.8.3.4-.4c-.8-1.4-.7-1.4-2.5-.3zM1017.7 1146.2c-.7.5 0 .6 1.7.4 1.6-.3 3.1-.7 3.3-1 .8-.8-3.7-.2-5 .6zM1029.9 1150.9c1.1.7 1.1.9 0 1.4-.8.3-.3.4 1.1.2 1.4-.2 2.9-.4 3.4-.4 1.7-.2-.2-1.2-3-1.7-1.9-.3-2.4-.1-1.5.5zM1005.7 1153.2c-.7.5 0 .6 1.7.4 1.6-.3 3.1-.7 3.3-1 .8-.8-3.7-.2-5 .6zM988 1167.1c-2.8.6-2.4.7 1.8.4 3.5-.2 5.2 0 5.2.8 0 .7.4.6 1-.3.7-1.1 1-1.1 1-.2 0 .7.5 1 1.1.7 2.7-1.8-4-2.6-10.1-1.4zM977 1168c0 .5.5 1 1 1 .6 0 1-.5 1-1 0-.6-.4-1-1-1-.5 0-1 .4-1 1zM969 1170.6c0 .3 1.1 1.5 2.5 2.6s2.3 2.4 2 2.9c-.4.5-.1.9.4.9 1.5 0 1.4-2.7-.1-3.4-.9-.4-.8-.5.2-.5 3.8.3 4.4-.1 2.4-1.6-1.9-1.4-7.4-2.1-7.4-.9zM945.4 1177.7c-1 1-1.3 1-1.7 0-.4-.9-.6-.9-.6 0-.1.8-1.4 1.3-3.3 1.3-5.5 0-1.3 1.8 5.8 2.5 3.4.3 6.3-.9 5.1-2.2-.5-.4-1.2-.1-1.7.7-.9 1.3-1 1.3-1 0s-.1-1.3-1 0c-.5.8-1.2 1.1-1.6.7-1.2-1.2.7-2.2 4.9-2.6.4-.1.7-.5.7-1 0-1.4-4.1-.9-5.6.6zM978.3 1176.7c.4.6.2 1.3-.5 1.5-.9.3-.9.6 0 1.2.7.4 1.2.2 1.2-.4 0-.6.4-.9.9-.5.5.3 1.3 0 1.7-.7.4-.7.4-1-.1-.6-.4.4-1.5.2-2.3-.5-1.1-.8-1.4-.8-.9 0zM954.2 1182.6c-1.1 1.3-.9 1.4 1.4 1 3.1-.6 4-1.3 3-2.3-.4-.4-1.1-.1-1.5.6-.5.8-1 .9-1.2.3-.2-.6-1-.4-1.7.4zM965.9 1182.9c1.1.7 1.1.9 0 1.4-.8.3-.3.4 1.1.2 1.4-.2 2.9-.4 3.4-.4 1.7-.2-.2-1.2-3-1.7-1.9-.3-2.4-.1-1.5.5zM921.1 1189.5c.4.3 1.9.8 3.5 1.1 1.6.3 2.6.2 2.3-.1-.4-.3-1.9-.8-3.5-1.1-1.6-.3-2.6-.2-2.3.1zM934.3 1189.7c.9.2 2.5.2 3.5 0 .9-.3.1-.5-1.8-.5-1.9 0-2.7.2-1.7.5zM953 1190.4c0 .2.7.7 1.6 1 .8.3 1.2.2.9-.4-.6-1-2.5-1.4-2.5-.6zM925 1193c0 .5.5 1 1 1 .6 0 1-.5 1-1 0-.6-.4-1-1-1-.5 0-1 .4-1 1zM905.3 1195.7c1.2 1.1-1.4 3.2-3.1 2.6-1.4-.5-1.5-.3-.5.7 1 1.1 1.6 1 3.3-.5 2.2-2 2.6-3.5.8-3.5-.6 0-.8.3-.5.7z"/></svg>